<svg width="161" height="25" viewBox="0 0 161 25" fill="none" xmlns="http://www.w3.org/2000/svg">
<path d="M14.0156 16.5156H18.3125C18.1979 18.0365 17.776 19.3854 17.0469 20.5625C16.3177 21.7292 15.3021 22.6458 14 23.3125C12.6979 23.9792 11.1198 24.3125 9.26562 24.3125C7.83854 24.3125 6.55208 24.0625 5.40625 23.5625C4.27083 23.0521 3.29688 22.3281 2.48438 21.3906C1.68229 20.4427 1.06771 19.3073 0.640625 17.9844C0.213542 16.651 0 15.1562 0 13.5V11.7656C0 10.1094 0.21875 8.61458 0.65625 7.28125C1.09375 5.94792 1.71875 4.8125 2.53125 3.875C3.35417 2.92708 4.33854 2.19792 5.48438 1.6875C6.64062 1.17708 7.93229 0.921875 9.35938 0.921875C11.2135 0.921875 12.7812 1.26562 14.0625 1.95312C15.3438 2.63021 16.3385 3.5625 17.0469 4.75C17.7552 5.9375 18.1823 7.30208 18.3281 8.84375H14.0312C13.9479 7.88542 13.7396 7.07292 13.4062 6.40625C13.0833 5.73958 12.5938 5.23438 11.9375 4.89062C11.2917 4.53646 10.4323 4.35938 9.35938 4.35938C8.52604 4.35938 7.79167 4.51562 7.15625 4.82812C6.53125 5.14062 6.01042 5.60938 5.59375 6.23438C5.17708 6.84896 4.86458 7.61979 4.65625 8.54688C4.44792 9.46354 4.34375 10.526 4.34375 11.7344V13.5C4.34375 14.6562 4.4375 15.6927 4.625 16.6094C4.8125 17.526 5.10417 18.3021 5.5 18.9375C5.89583 19.5729 6.40625 20.0573 7.03125 20.3906C7.65625 20.724 8.40104 20.8906 9.26562 20.8906C10.3177 20.8906 11.1719 20.724 11.8281 20.3906C12.4948 20.0573 13 19.5677 13.3438 18.9219C13.6979 18.276 13.9219 17.474 14.0156 16.5156Z" fill="#E1E1E6"/>
<path d="M25.7031 0V24H21.5625V0H25.7031Z" fill="#E1E1E6"/>
<path d="M38.9531 20.4062V12.6094C38.9531 12.0365 38.8542 11.5417 38.6562 11.125C38.4583 10.7083 38.1562 10.3854 37.75 10.1562C37.3438 9.92708 36.8281 9.8125 36.2031 9.8125C35.651 9.8125 35.1667 9.90625 34.75 10.0938C34.3438 10.2812 34.0312 10.5469 33.8125 10.8906C33.5938 11.224 33.4844 11.6094 33.4844 12.0469H29.3438C29.3438 11.349 29.5104 10.6875 29.8438 10.0625C30.1771 9.42708 30.651 8.86458 31.2656 8.375C31.8906 7.875 32.6354 7.48438 33.5 7.20312C34.375 6.92188 35.3542 6.78125 36.4375 6.78125C37.7188 6.78125 38.8594 7 39.8594 7.4375C40.8698 7.86458 41.6615 8.51042 42.2344 9.375C42.8177 10.2396 43.1094 11.3281 43.1094 12.6406V20.0156C43.1094 20.8594 43.1615 21.5833 43.2656 22.1875C43.3802 22.7812 43.5469 23.2969 43.7656 23.7344V24H39.5625C39.3646 23.5729 39.2135 23.0312 39.1094 22.375C39.0052 21.7083 38.9531 21.0521 38.9531 20.4062ZM39.5312 13.7031L39.5625 16.1562H36.9531C36.3073 16.1562 35.7396 16.224 35.25 16.3594C34.7604 16.4844 34.3594 16.6719 34.0469 16.9219C33.7344 17.1615 33.5 17.4531 33.3438 17.7969C33.1875 18.1302 33.1094 18.5104 33.1094 18.9375C33.1094 19.3542 33.2031 19.7292 33.3906 20.0625C33.5885 20.3958 33.8698 20.6615 34.2344 20.8594C34.6094 21.0469 35.0469 21.1406 35.5469 21.1406C36.276 21.1406 36.9115 20.9948 37.4531 20.7031C37.9948 20.401 38.4167 20.0365 38.7188 19.6094C39.0208 19.1823 39.1823 18.776 39.2031 18.3906L40.3906 20.1719C40.2448 20.599 40.026 21.0521 39.7344 21.5312C39.4427 22.0104 39.0677 22.4583 38.6094 22.875C38.151 23.2917 37.599 23.6354 36.9531 23.9062C36.3073 24.1771 35.5573 24.3125 34.7031 24.3125C33.6094 24.3125 32.6302 24.0938 31.7656 23.6562C30.901 23.2188 30.2188 22.6198 29.7188 21.8594C29.2188 21.099 28.9688 20.2344 28.9688 19.2656C28.9688 18.3698 29.1354 17.5781 29.4688 16.8906C29.8021 16.2031 30.2969 15.625 30.9531 15.1562C31.6094 14.6771 32.4219 14.3177 33.3906 14.0781C34.3698 13.8281 35.4896 13.7031 36.75 13.7031H39.5312Z" fill="#E1E1E6"/>
<path d="M50.9531 10.5469V24H46.8281V7.09375H50.7344L50.9531 10.5469ZM56.0938 6.98438L56.0312 10.8281C55.8021 10.7865 55.5417 10.7552 55.25 10.7344C54.9688 10.7135 54.7031 10.7031 54.4531 10.7031C53.8177 10.7031 53.2604 10.7917 52.7812 10.9688C52.3021 11.1354 51.901 11.3802 51.5781 11.7031C51.2656 12.026 51.026 12.4219 50.8594 12.8906C50.6927 13.349 50.599 13.8698 50.5781 14.4531L49.6875 14.3438C49.6875 13.2708 49.7969 12.276 50.0156 11.3594C50.2344 10.4427 50.5521 9.64062 50.9688 8.95312C51.3854 8.26562 51.9062 7.73438 52.5312 7.35938C53.1667 6.97396 53.8958 6.78125 54.7188 6.78125C54.9479 6.78125 55.1927 6.80208 55.4531 6.84375C55.724 6.875 55.9375 6.92188 56.0938 6.98438Z" fill="#E1E1E6"/>
<path d="M65.6406 24.3125C64.3594 24.3125 63.2083 24.1042 62.1875 23.6875C61.1667 23.2708 60.2969 22.6927 59.5781 21.9531C58.8698 21.2031 58.3229 20.3333 57.9375 19.3438C57.5625 18.3438 57.375 17.2708 57.375 16.125V15.5C57.375 14.1979 57.5625 13.0156 57.9375 11.9531C58.3125 10.8802 58.8438 9.95833 59.5312 9.1875C60.2188 8.41667 61.0417 7.82292 62 7.40625C62.9583 6.98958 64.0156 6.78125 65.1719 6.78125C66.3698 6.78125 67.4271 6.98438 68.3438 7.39062C69.2604 7.78646 70.026 8.34896 70.6406 9.07812C71.2552 9.80729 71.7188 10.6823 72.0312 11.7031C72.3438 12.7135 72.5 13.8333 72.5 15.0625V16.7969H59.25V13.9531H68.4375V13.6406C68.4167 12.9844 68.2917 12.3854 68.0625 11.8438C67.8333 11.2917 67.4792 10.8542 67 10.5312C66.5208 10.1979 65.901 10.0312 65.1406 10.0312C64.526 10.0312 63.9896 10.1667 63.5312 10.4375C63.0833 10.6979 62.7083 11.0729 62.4062 11.5625C62.1146 12.0417 61.8958 12.6146 61.75 13.2812C61.6042 13.9479 61.5312 14.6875 61.5312 15.5V16.125C61.5312 16.8333 61.625 17.4896 61.8125 18.0938C62.0104 18.6979 62.2969 19.224 62.6719 19.6719C63.0573 20.1094 63.5156 20.4531 64.0469 20.7031C64.5885 20.9427 65.2031 21.0625 65.8906 21.0625C66.7552 21.0625 67.5365 20.8958 68.2344 20.5625C68.9427 20.2188 69.5573 19.7135 70.0781 19.0469L72.1562 21.2031C71.8021 21.724 71.3229 22.224 70.7188 22.7031C70.125 23.1823 69.4062 23.5729 68.5625 23.875C67.7188 24.1667 66.7448 24.3125 65.6406 24.3125Z" fill="#E1E1E6"/>
<path d="M101.828 1.25V24H97.5156L87.8438 8.21875V24H83.5469V1.25H87.8438L97.5469 17.0469V1.25H101.828Z" fill="#E1E1E6"/>
<path d="M113.484 24.3125C112.203 24.3125 111.052 24.1042 110.031 23.6875C109.01 23.2708 108.141 22.6927 107.422 21.9531C106.714 21.2031 106.167 20.3333 105.781 19.3438C105.406 18.3438 105.219 17.2708 105.219 16.125V15.5C105.219 14.1979 105.406 13.0156 105.781 11.9531C106.156 10.8802 106.688 9.95833 107.375 9.1875C108.062 8.41667 108.885 7.82292 109.844 7.40625C110.802 6.98958 111.859 6.78125 113.016 6.78125C114.214 6.78125 115.271 6.98438 116.188 7.39062C117.104 7.78646 117.87 8.34896 118.484 9.07812C119.099 9.80729 119.562 10.6823 119.875 11.7031C120.188 12.7135 120.344 13.8333 120.344 15.0625V16.7969H107.094V13.9531H116.281V13.6406C116.26 12.9844 116.135 12.3854 115.906 11.8438C115.677 11.2917 115.323 10.8542 114.844 10.5312C114.365 10.1979 113.745 10.0312 112.984 10.0312C112.37 10.0312 111.833 10.1667 111.375 10.4375C110.927 10.6979 110.552 11.0729 110.25 11.5625C109.958 12.0417 109.74 12.6146 109.594 13.2812C109.448 13.9479 109.375 14.6875 109.375 15.5V16.125C109.375 16.8333 109.469 17.4896 109.656 18.0938C109.854 18.6979 110.141 19.224 110.516 19.6719C110.901 20.1094 111.359 20.4531 111.891 20.7031C112.432 20.9427 113.047 21.0625 113.734 21.0625C114.599 21.0625 115.38 20.8958 116.078 20.5625C116.786 20.2188 117.401 19.7135 117.922 19.0469L120 21.2031C119.646 21.724 119.167 22.224 118.562 22.7031C117.969 23.1823 117.25 23.5729 116.406 23.875C115.562 24.1667 114.589 24.3125 113.484 24.3125Z" fill="#E1E1E6"/>
<path d="M127.812 19.9375L131.516 7.09375H134.141L133.359 11.5312L129.625 24H127.359L127.812 19.9375ZM125.766 7.09375L128.547 19.9688L128.797 24H126.188L121.75 7.09375H125.766ZM137.578 19.7812L140.297 7.09375H144.297L139.891 24H137.281L137.578 19.7812ZM134.547 7.09375L138.219 19.8125L138.703 24H136.438L132.672 11.5312L131.906 7.09375H134.547Z" fill="#E1E1E6"/>
<path d="M156.031 19.375C156.031 19.0208 155.938 18.7031 155.75 18.4219C155.562 18.1406 155.208 17.8854 154.688 17.6562C154.177 17.4167 153.427 17.1927 152.438 16.9844C151.562 16.7969 150.755 16.5625 150.016 16.2812C149.276 16 148.641 15.6615 148.109 15.2656C147.578 14.8594 147.161 14.3854 146.859 13.8438C146.568 13.2917 146.422 12.6562 146.422 11.9375C146.422 11.2396 146.573 10.5833 146.875 9.96875C147.177 9.34375 147.615 8.79688 148.188 8.32812C148.76 7.84896 149.458 7.47396 150.281 7.20312C151.104 6.92188 152.031 6.78125 153.062 6.78125C154.5 6.78125 155.734 7.01562 156.766 7.48438C157.807 7.95312 158.604 8.59896 159.156 9.42188C159.708 10.2344 159.984 11.151 159.984 12.1719H155.859C155.859 11.724 155.755 11.3177 155.547 10.9531C155.349 10.5885 155.042 10.2969 154.625 10.0781C154.208 9.84896 153.682 9.73438 153.047 9.73438C152.474 9.73438 151.99 9.82812 151.594 10.0156C151.208 10.2031 150.917 10.4479 150.719 10.75C150.521 11.0521 150.422 11.3854 150.422 11.75C150.422 12.0208 150.474 12.2656 150.578 12.4844C150.693 12.6927 150.875 12.8854 151.125 13.0625C151.375 13.2396 151.714 13.401 152.141 13.5469C152.578 13.6927 153.115 13.8333 153.75 13.9688C155.01 14.2188 156.109 14.5521 157.047 14.9688C157.995 15.375 158.734 15.9167 159.266 16.5938C159.797 17.2708 160.062 18.1354 160.062 19.1875C160.062 19.9375 159.901 20.625 159.578 21.25C159.255 21.8646 158.786 22.401 158.172 22.8594C157.557 23.3177 156.823 23.6771 155.969 23.9375C155.115 24.1875 154.151 24.3125 153.078 24.3125C151.526 24.3125 150.214 24.0365 149.141 23.4844C148.068 22.9219 147.255 22.2135 146.703 21.3594C146.151 20.4948 145.875 19.599 145.875 18.6719H149.828C149.859 19.3281 150.036 19.8542 150.359 20.25C150.682 20.6458 151.089 20.9323 151.578 21.1094C152.078 21.276 152.604 21.3594 153.156 21.3594C153.781 21.3594 154.307 21.276 154.734 21.1094C155.161 20.9323 155.484 20.6979 155.703 20.4062C155.922 20.1042 156.031 19.7604 156.031 19.375Z" fill="#E1E1E6"/>
</svg>
